Coordinates
version=1
nRows=11
nColumns=36
inDegrees=yes

Units are S.I. units (second, meters, Newtons, ...)
If the header above contains a line with 'inDegrees', this indicates whether rotational values are in degrees (yes) or radians (no).

endheader
time	pelvis_tilt	pelvis_list	pelvis_rotation	pelvis_tx	pelvis_ty	pelvis_tz	hip_flexion_r	hip_adduction_r	hip_rotation_r	knee_angle_r	knee_angle_r_beta	ankle_angle_r	subtalar_angle_r	mtp_angle_r	hip_flexion_l	hip_adduction_l	hip_rotation_l	knee_angle_l	knee_angle_l_beta	ankle_angle_l	subtalar_angle_l	mtp_angle_l	lumbar_extension	lumbar_bending	lumbar_rotation	arm_flex_r	arm_add_r	arm_rot_r	elbow_flex_r	pro_sup_r	arm_flex_l	arm_add_l	arm_rot_l	elbow_flex_l	pro_sup_l
      1.16666670	     -3.26495570	     -0.30372237	      5.78237641	      0.32178030	      1.24518598	     -0.17612603	      7.10930125	     -0.29241890	      9.62553246	     13.80538808	      0.24094948	     15.71716979	    -12.48773225	     -7.49720474	      4.96874407	     -0.65404472	      2.90042427	     16.06455407	      0.28037936	     12.39592246	     -6.44146687	     -7.49720474	     -7.99697463	     -1.59577121	     -5.66166031	      1.18687337	    -13.55541165	     11.15976773	     55.12294370	     75.19511012	     -2.31255593	    -17.27890171	      8.38756973	     31.19426576	     88.41119662
      1.18333330	     -3.32582489	     -0.36667329	      5.84888190	      0.31356082	      1.24451678	     -0.17257458	      7.20020386	     -0.17765213	      9.71677463	     13.64331041	      0.23812069	     15.64884996	    -12.41703039	     -7.49720836	      5.20124064	     -0.75698785	      2.99574725	     15.97799837	      0.27886868	     12.50950173	     -6.48715696	     -7.49720836	     -8.13734802	     -1.63229289	     -5.54484319	      1.48638163	    -13.50140747	     11.18825580	     55.18536760	     75.21254715	     -2.10678170	    -17.33384996	      8.37605372	     31.24877918	     88.42810400
      1.20000000	     -3.20418876	     -0.47220332	      5.83988532	      0.31289790	      1.24466745	     -0.17248292	      7.19430060	     -0.05993589	      9.73445427	     13.50493596	      0.23570560	     15.16750114	    -12.53494945	     -7.49801771	      5.34020188	     -0.86937033	      3.22564482	     16.02289131	      0.27965221	     12.71202185	     -6.84677976	     -7.49801771	     -8.69208763	     -1.44072941	     -5.56273494	      2.38414448	    -13.73271738	     12.23931520	     54.79979272	     77.25857822	     -1.97834955	    -17.42111233	      7.87328959	     31.67834181	     91.36601376
      1.21666670	     -3.15057753	     -0.50944112	      5.78768088	      0.31229986	      1.23846554	     -0.17289318	      7.34586298	     -0.02751714	      9.62285326	     13.57412173	      0.23691312	     15.05337501	    -12.30037635	     -7.49824268	      5.60197654	     -0.97679548	      3.17279669	     16.06601199	      0.28040481	     12.96001469	     -6.89432144	     -7.49824268	     -9.20190556	     -1.37466279	     -5.46327286	      2.89217235	    -13.71406712	     12.32309464	     55.25513881	     75.89586876	     -2.01697517	    -17.50162902	      7.69628457	     32.27766858	     88.83075602
      1.23333330	     -3.27810898	     -0.57189952	      5.91507326	      0.30445543	      1.24156723	     -0.17570660	      7.75091713	     -0.02827442	      9.51911304	     13.68926046	      0.23892267	     14.82826114	    -12.27008478	     -7.49824992	      6.08899029	     -1.04048397	      3.16664359	     16.07687146	      0.28059434	     12.87914717	     -6.91765299	     -7.49824992	     -9.61562248	     -1.26942293	     -5.46132554	      3.38689755	    -13.73973195	     12.35637220	     55.31560944	     75.94683435	     -1.43193100	    -17.58714831	      7.70197384	     32.43053590	     88.91054260
      1.25000000	     -3.37510597	     -0.60895036	      6.00262395	      0.31242118	      1.23899453	     -0.17339113	      7.97199041	     -0.04670382	      9.41606648	     13.68236655	      0.23880235	     14.83623137	    -12.29527606	     -7.49825408	      6.40521696	     -1.09759197	      3.13383989	     16.02480187	      0.27968555	     13.07876491	     -7.04940009	     -7.49825408	     -9.95553621	     -1.20830796	     -5.37268021	      3.70248955	    -13.71917877	     12.40729174	     55.34439321	     75.98285863	     -1.09889424	    -17.64347055	      7.70386150	     32.53407602	     88.96021079
      1.26666670	     -3.56260210	     -0.70014668	      6.22042881	      0.30348104	      1.23888914	     -0.17652203	      8.57157706	     -0.06254506	      9.09591042	     14.10305381	      0.24614472	     14.86196560	    -12.11685647	     -7.49845806	      7.17700072	     -1.15551709	      3.18377903	     16.47828781	      0.28760038	     13.23488249	     -7.17633171	     -7.49845806	    -10.36764148	     -1.04611298	     -5.38336819	      4.65491069	    -14.06184954	     13.63514939	     54.43337114	     77.54380399	     -0.49115840	    -17.81158713	      8.25344881	     32.76284838	     91.42450845
      1.28333330	     -3.61815307	     -0.72395449	      6.38261624	      0.30398653	      1.23947329	     -0.17709022	      8.81500929	     -0.11215879	      9.11694327	     14.26229088	      0.24892393	     14.76303249	    -12.49413591	     -7.49852779	      7.34512618	     -1.15303974	      3.06352448	     16.50247921	      0.28802260	     13.08291679	     -7.23404596	     -7.49852779	    -10.98470275	     -0.95364082	     -5.00888832	      5.09952374	    -14.12990555	     13.51035748	     54.29165977	     76.69371658	      0.08698631	    -17.71121641	      7.97175439	     33.20542919	     90.95936321
      1.30000000	     -3.76863304	     -0.75236619	      6.46712945	      0.31035991	      1.23395481	     -0.17430961	      8.97177860	     -0.12899416	      9.25431749	     14.27762223	      0.24919152	     14.81643918	    -12.81969771	     -7.49874431	      7.49934136	     -1.17690927	      2.94878129	     16.77998318	      0.29286595	     12.83982881	     -7.30717780	     -7.49874431	    -11.07720800	     -0.96485468	     -4.96372880	      5.94005144	    -14.13049623	     14.42913780	     53.06008881	     76.68038868	      0.36239558	    -17.68359440	      7.99026402	     32.90988250	     90.07967725
      1.31666670	     -3.75244938	     -0.87591836	      6.60369988	      0.31105415	      1.23089985	     -0.17490383	      8.92616533	     -0.02996177	      9.19333877	     14.21906408	      0.24816948	     14.92142245	    -12.72761121	     -7.49883942	      7.60436291	     -1.33067825	      2.94410212	     17.20671996	      0.30031392	     12.91446798	     -7.31070871	     -7.49883942	    -11.55233489	     -0.82723996	     -4.98113862	      6.18943513	    -14.09883377	     14.45118648	     52.51092579	     76.53021065	      0.59270421	    -17.73212196	      7.96540410	     33.06251427	     89.71719450
      1.33333330	     -3.97355283	     -0.97288241	      6.56370061	      0.30332125	      1.23012701	     -0.17748961	      9.45663100	      0.02570155	      9.23045743	     14.72748051	      0.25704303	     15.02572091	    -12.97425823	     -7.49884855	      8.01698585	     -1.41266934	      2.82537590	     17.76188273	      0.31000333	     12.91203330	     -7.41910257	     -7.49884855	    -11.96708451	     -0.71160847	     -4.84408855	      6.60249585	    -14.17761136	     14.56271104	     52.08346647	     76.72037584	      1.04130937	    -17.71452892	      7.98944100	     33.15686057	     89.96493908
